<svg width="40" height="42" viewBox="0 0 16 16" fill="none" xmlns="http://www.w3.org/2000/svg">
<path fill-rule="evenodd" clip-rule="evenodd" d="M13.7656 3.39261L7.89862 9.25761C7.74762 9.03161 7.57462 8.81761 7.37762 8.62161C7.18062 8.42461 6.96662 8.25261 6.74062 8.10461L12.6096 2.23761C12.9156 1.93061 13.4576 1.92961 13.7666 2.23861C13.9196 2.39161 14.0026 2.59161 13.9996 2.82761C14.0026 3.03861 13.9186 3.23861 13.7656 3.39261ZM4.24562 13.9406L2.01762 13.9816L2.05662 11.7506C2.07762 10.4846 3.12662 9.43461 4.39562 9.41261C4.40962 9.41261 4.42162 9.41161 4.43562 9.41161C5.01962 9.41161 5.56062 9.63161 5.96362 10.0356C6.37662 10.4476 6.59762 11.0036 6.58762 11.6016C6.56662 12.8696 5.51562 13.9186 4.24562 13.9406ZM15.9996 2.82761C16.0096 2.07161 15.7176 1.35961 15.1806 0.823609C14.1186 -0.237391 12.2556 -0.240391 11.1956 0.823609L4.58262 7.43361C4.50762 7.42961 4.43562 7.41361 4.36062 7.41261C2.02662 7.45461 0.0956184 9.38561 0.0566184 11.7166L-0.000381593 14.9826C-0.00538159 15.2536 0.101618 15.5156 0.292618 15.7066C0.480618 15.8946 0.735618 15.9996 0.999618 15.9996H1.01862L4.28462 15.9406C6.61662 15.8996 8.54662 13.9686 8.58762 11.6356C8.58862 11.5606 8.57262 11.4896 8.57062 11.4136L15.1796 4.80661C15.7176 4.26861 16.0096 3.55661 15.9996 2.82761Z" fill="#fafafa"/>
</svg>
